<svg id="visual" viewBox="0 0 960 540" width="960" height="540" xmlns="http://www.w3.org/2000/svg" xmlns:xlink="http://www.w3.org/1999/xlink" version="1.1"><rect x="0" y="0" width="960" height="540" fill="#ffffff"></rect><defs><linearGradient id="grad1_0" x1="43.8%" y1="0%" x2="100%" y2="100%"><stop offset="14.444444444444446%" stop-color="#ffffff" stop-opacity="1"></stop><stop offset="85.55555555555554%" stop-color="#ffffff" stop-opacity="1"></stop></linearGradient></defs><defs><linearGradient id="grad2_0" x1="0%" y1="0%" x2="56.3%" y2="100%"><stop offset="14.444444444444446%" stop-color="#ffffff" stop-opacity="1"></stop><stop offset="85.55555555555554%" stop-color="#ffffff" stop-opacity="1"></stop></linearGradient></defs><g transform="translate(960, 0)"><path d="M0 540C-60.6 494.5 -121.2 448.9 -170.7 412.1C-220.2 375.2 -258.6 347 -318.2 318.2C-377.8 289.3 -458.4 259.8 -498.9 206.6C-539.4 153.5 -539.7 76.7 -540 0L0 0Z" fill="#715DF2"></path></g><g transform="translate(0, 540)"><path d="M0 -540C51 -490.5 101.9 -440.9 175.7 -424.1C249.4 -407.2 345.9 -423 381.8 -381.8C417.7 -340.7 393 -242.7 409.3 -169.5C425.5 -96.4 482.8 -48.2 540 0L0 0Z" fill="#715DF2"></path></g></svg>