<svg id="visual" viewBox="0 0 540 960" width="540" height="960" xmlns="http://www.w3.org/2000/svg" xmlns:xlink="http://www.w3.org/1999/xlink" version="1.1"><rect x="0" y="0" width="540" height="960" fill="#ffffff"></rect><defs><linearGradient id="grad1_0" x1="0%" y1="0%" x2="100%" y2="100%"><stop offset="30%" stop-color="#ffffff" stop-opacity="1"></stop><stop offset="70%" stop-color="#ffffff" stop-opacity="1"></stop></linearGradient></defs><defs><linearGradient id="grad2_0" x1="0%" y1="0%" x2="100%" y2="100%"><stop offset="30%" stop-color="#ffffff" stop-opacity="1"></stop><stop offset="70%" stop-color="#ffffff" stop-opacity="1"></stop></linearGradient></defs><g transform="translate(540, 0)"><path d="M0 486C-55.9 461.5 -111.8 437.1 -173 417.6C-234.2 398.1 -300.7 383.7 -343.7 343.7C-386.6 303.6 -406.1 238 -425.9 176.4C-445.7 114.9 -465.9 57.4 -486 0L0 0Z" fill="#FBAE3C"></path></g><g transform="translate(0, 960)"><path d="M0 -486C66.5 -482.3 132.9 -478.6 186 -449C239 -419.5 278.6 -364.1 314.7 -314.7C350.7 -265.2 383.2 -221.7 411.1 -170.3C439.1 -118.8 462.5 -59.4 486 0L0 0Z" fill="#FBAE3C"></path></g></svg>