<svg id="visual" viewBox="0 0 900 600" width="900" height="600" xmlns="http://www.w3.org/2000/svg" xmlns:xlink="http://www.w3.org/1999/xlink" version="1.1"><rect x="0" y="0" width="900" height="600" fill="#ffffff"></rect><defs><linearGradient id="grad1_0" x1="33.3%" y1="0%" x2="100%" y2="100%"><stop offset="20%" stop-color="#ffffff" stop-opacity="1"></stop><stop offset="80%" stop-color="#ffffff" stop-opacity="1"></stop></linearGradient></defs><defs><linearGradient id="grad2_0" x1="0%" y1="0%" x2="66.7%" y2="100%"><stop offset="20%" stop-color="#ffffff" stop-opacity="1"></stop><stop offset="80%" stop-color="#ffffff" stop-opacity="1"></stop></linearGradient></defs><g transform="translate(900, 0)"><path d="M0 486.7C-46.6 440.8 -93.1 394.9 -156.9 378.8C-220.7 362.7 -301.6 376.3 -344.2 344.2C-386.8 312.1 -391 234.1 -408.4 169.1C-425.7 104.2 -456.2 52.1 -486.7 0L0 0Z" fill="#FBAE3C"></path></g><g transform="translate(0, 600)"><path d="M0 -486.7C48.5 -444.1 97 -401.4 159.2 -384.3C221.4 -367.2 297.3 -375.7 344.2 -344.2C391 -312.7 408.8 -241.2 427.8 -177.2C446.7 -113.2 466.7 -56.6 486.7 0L0 0Z" fill="#FBAE3C"></path></g></svg>