<svg id="visual" viewBox="0 0 960 540" width="960" height="540" xmlns="http://www.w3.org/2000/svg" xmlns:xlink="http://www.w3.org/1999/xlink" version="1.1"><rect x="0" y="0" width="960" height="540" fill="#002233"></rect><path d="M480 540L477 527.2C474 514.3 468 488.7 481.3 463C494.7 437.3 527.3 411.7 527.5 386C527.7 360.3 495.3 334.7 500.7 308.8C506 283 549 257 560.8 231.2C572.7 205.3 553.3 179.7 541.7 154C530 128.3 526 102.7 528.3 77C530.7 51.3 539.3 25.7 543.7 12.8L548 0L960 0L960 12.8C960 25.7 960 51.3 960 77C960 102.7 960 128.3 960 154C960 179.7 960 205.3 960 231.2C960 257 960 283 960 308.8C960 334.7 960 360.3 960 386C960 411.7 960 437.3 960 463C960 488.7 960 514.3 960 527.2L960 540Z" fill="#0066FF" stroke-linecap="round" stroke-linejoin="miter"></path></svg>