<svg id="visual" viewBox="0 0 675 900" width="675" height="900" xmlns="http://www.w3.org/2000/svg" xmlns:xlink="http://www.w3.org/1999/xlink" version="1.1"><rect x="0" y="0" width="675" height="900" fill="#ffffff"></rect><path d="M0 394L16 388.5C32 383 64 372 96.2 395.3C128.3 418.7 160.7 476.3 192.8 477.5C225 478.7 257 423.3 289.2 433.8C321.3 444.3 353.7 520.7 385.8 545.3C418 570 450 543 482.2 518C514.3 493 546.7 470 578.8 470.7C611 471.3 643 495.7 659 507.8L675 520L675 901L659 901C643 901 611 901 578.8 901C546.7 901 514.3 901 482.2 901C450 901 418 901 385.8 901C353.7 901 321.3 901 289.2 901C257 901 225 901 192.8 901C160.7 901 128.3 901 96.2 901C64 901 32 901 16 901L0 901Z" fill="#8a7af6"></path><path d="M0 567L16 571.2C32 575.3 64 583.7 96.2 577C128.3 570.3 160.7 548.7 192.8 537.5C225 526.3 257 525.7 289.2 528.7C321.3 531.7 353.7 538.3 385.8 555.8C418 573.3 450 601.7 482.2 604.7C514.3 607.7 546.7 585.3 578.8 557.8C611 530.3 643 497.7 659 481.3L675 465L675 901L659 901C643 901 611 901 578.8 901C546.7 901 514.3 901 482.2 901C450 901 418 901 385.8 901C353.7 901 321.3 901 289.2 901C257 901 225 901 192.8 901C160.7 901 128.3 901 96.2 901C64 901 32 901 16 901L0 901Z" fill="#7d65f0"></path><path d="M0 628L16 636.5C32 645 64 662 96.2 658.5C128.3 655 160.7 631 192.8 612.7C225 594.3 257 581.7 289.2 596.7C321.3 611.7 353.7 654.3 385.8 672C418 689.7 450 682.3 482.2 680.2C514.3 678 546.7 681 578.8 685.7C611 690.3 643 696.7 659 699.8L675 703L675 901L659 901C643 901 611 901 578.8 901C546.7 901 514.3 901 482.2 901C450 901 418 901 385.8 901C353.7 901 321.3 901 289.2 901C257 901 225 901 192.8 901C160.7 901 128.3 901 96.2 901C64 901 32 901 16 901L0 901Z" fill="#704ee9"></path><path d="M0 667L16 684.8C32 702.7 64 738.3 96.2 755.8C128.3 773.3 160.7 772.7 192.8 763C225 753.3 257 734.7 289.2 730.8C321.3 727 353.7 738 385.8 744.3C418 750.7 450 752.3 482.2 734.7C514.3 717 546.7 680 578.8 672.3C611 664.7 643 686.3 659 697.2L675 708L675 901L659 901C643 901 611 901 578.8 901C546.7 901 514.3 901 482.2 901C450 901 418 901 385.8 901C353.7 901 321.3 901 289.2 901C257 901 225 901 192.8 901C160.7 901 128.3 901 96.2 901C64 901 32 901 16 901L0 901Z" fill="#6534e1"></path><path d="M0 826L16 814.2C32 802.3 64 778.7 96.2 766.3C128.3 754 160.7 753 192.8 769.8C225 786.7 257 821.3 289.2 819C321.3 816.7 353.7 777.3 385.8 770.2C418 763 450 788 482.2 807.2C514.3 826.3 546.7 839.7 578.8 847C611 854.3 643 855.7 659 856.3L675 857L675 901L659 901C643 901 611 901 578.8 901C546.7 901 514.3 901 482.2 901C450 901 418 901 385.8 901C353.7 901 321.3 901 289.2 901C257 901 225 901 192.8 901C160.7 901 128.3 901 96.2 901C64 901 32 901 16 901L0 901Z" fill="#5b09d7"></path></svg>