<svg id="visual" viewBox="0 0 900 600" width="900" height="600" xmlns="http://www.w3.org/2000/svg" xmlns:xlink="http://www.w3.org/1999/xlink" version="1.1"><rect x="0" y="0" width="900" height="600" fill="#ffffff"></rect><path d="M396 600L390.5 585.7C385 571.3 374 542.7 397.3 514.2C420.7 485.7 478.3 457.3 479.5 428.8C480.7 400.3 425.3 371.7 435.8 343C446.3 314.3 522.7 285.7 547.3 257C572 228.3 545 199.7 520 171.2C495 142.7 472 114.3 472.7 85.8C473.3 57.3 497.7 28.7 509.8 14.3L522 0L900 0L900 14.3C900 28.7 900 57.3 900 85.8C900 114.3 900 142.7 900 171.2C900 199.7 900 228.3 900 257C900 285.7 900 314.3 900 343C900 371.7 900 400.3 900 428.8C900 457.3 900 485.7 900 514.2C900 542.7 900 571.3 900 585.7L900 600Z" fill="#8a7af6"></path><path d="M569 600L573.2 585.7C577.3 571.3 585.7 542.7 579 514.2C572.3 485.7 550.7 457.3 539.5 428.8C528.3 400.3 527.7 371.7 530.7 343C533.7 314.3 540.3 285.7 557.8 257C575.3 228.3 603.7 199.7 606.7 171.2C609.7 142.7 587.3 114.3 559.8 85.8C532.3 57.3 499.7 28.7 483.3 14.3L467 0L900 0L900 14.3C900 28.7 900 57.3 900 85.8C900 114.3 900 142.7 900 171.2C900 199.7 900 228.3 900 257C900 285.7 900 314.3 900 343C900 371.7 900 400.3 900 428.8C900 457.3 900 485.7 900 514.2C900 542.7 900 571.3 900 585.7L900 600Z" fill="#7d65f0"></path><path d="M630 600L638.5 585.7C647 571.3 664 542.7 660.5 514.2C657 485.7 633 457.3 614.7 428.8C596.3 400.3 583.7 371.7 598.7 343C613.7 314.3 656.3 285.7 674 257C691.7 228.3 684.3 199.7 682.2 171.2C680 142.7 683 114.3 687.7 85.8C692.3 57.3 698.7 28.7 701.8 14.3L705 0L900 0L900 14.3C900 28.7 900 57.3 900 85.8C900 114.3 900 142.7 900 171.2C900 199.7 900 228.3 900 257C900 285.7 900 314.3 900 343C900 371.7 900 400.3 900 428.8C900 457.3 900 485.7 900 514.2C900 542.7 900 571.3 900 585.7L900 600Z" fill="#704ee9"></path><path d="M669 600L686.8 585.7C704.7 571.3 740.3 542.7 757.8 514.2C775.3 485.7 774.7 457.3 765 428.8C755.3 400.3 736.7 371.7 732.8 343C729 314.3 740 285.7 746.3 257C752.7 228.3 754.3 199.7 736.7 171.2C719 142.7 682 114.3 674.3 85.8C666.7 57.3 688.3 28.7 699.2 14.3L710 0L900 0L900 14.3C900 28.7 900 57.3 900 85.8C900 114.3 900 142.7 900 171.2C900 199.7 900 228.3 900 257C900 285.7 900 314.3 900 343C900 371.7 900 400.3 900 428.8C900 457.3 900 485.7 900 514.2C900 542.7 900 571.3 900 585.7L900 600Z" fill="#6534e1"></path><path d="M828 600L816.2 585.7C804.3 571.3 780.7 542.7 768.3 514.2C756 485.7 755 457.3 771.8 428.8C788.7 400.3 823.3 371.7 821 343C818.7 314.3 779.3 285.7 772.2 257C765 228.3 790 199.7 809.2 171.2C828.3 142.7 841.7 114.3 849 85.8C856.3 57.3 857.7 28.7 858.3 14.3L859 0L900 0L900 14.3C900 28.7 900 57.3 900 85.8C900 114.3 900 142.7 900 171.2C900 199.7 900 228.3 900 257C900 285.7 900 314.3 900 343C900 371.7 900 400.3 900 428.8C900 457.3 900 485.7 900 514.2C900 542.7 900 571.3 900 585.7L900 600Z" fill="#5b09d7"></path></svg>