<svg id="visual" viewBox="0 0 960 540" width="960" height="540" xmlns="http://www.w3.org/2000/svg" xmlns:xlink="http://www.w3.org/1999/xlink" version="1.1"><rect x="0" y="0" width="960" height="540" fill="#140021"></rect><path d="M551 540L484 540L484 473L458 473L458 405L406 405L406 338L419 338L419 270L431 270L431 203L458 203L458 135L501 135L501 68L404 68L404 0L960 0L960 68L960 68L960 135L960 135L960 203L960 203L960 270L960 270L960 338L960 338L960 405L960 405L960 473L960 473L960 540L960 540Z" fill="#9900ff"></path><path d="M551 540L653 540L653 473L593 473L593 405L523 405L523 338L597 338L597 270L547 270L547 203L627 203L627 135L651 135L651 68L508 68L508 0L960 0L960 68L960 68L960 135L960 135L960 203L960 203L960 270L960 270L960 338L960 338L960 405L960 405L960 473L960 473L960 540L960 540Z" fill="#8200d9"></path><path d="M666 540L665 540L665 473L672 473L672 405L743 405L743 338L756 338L756 270L732 270L732 203L669 203L669 135L691 135L691 68L669 68L669 0L960 0L960 68L960 68L960 135L960 135L960 203L960 203L960 270L960 270L960 338L960 338L960 405L960 405L960 473L960 473L960 540L960 540Z" fill="#6c00b4"></path><path d="M820 540L841 540L841 473L829 473L829 405L891 405L891 338L836 338L836 270L798 270L798 203L819 203L819 135L780 135L780 68L889 68L889 0L960 0L960 68L960 68L960 135L960 135L960 203L960 203L960 270L960 270L960 338L960 338L960 405L960 405L960 473L960 473L960 540L960 540Z" fill="#560090"></path></svg>