<svg id="visual" viewBox="0 0 900 600" width="900" height="600" xmlns="http://www.w3.org/2000/svg" xmlns:xlink="http://www.w3.org/1999/xlink" version="1.1"><path d="M0 458L16.7 459.3C33.3 460.7 66.7 463.3 100 462.5C133.3 461.7 166.7 457.3 200 454.7C233.3 452 266.7 451 300 461.5C333.3 472 366.7 494 400 506.2C433.3 518.3 466.7 520.7 500 507.2C533.3 493.7 566.7 464.3 600 451.8C633.3 439.3 666.7 443.7 700 452.8C733.3 462 766.7 476 800 485.7C833.3 495.3 866.7 500.7 883.3 503.3L900 506L900 601L883.3 601C866.7 601 833.3 601 800 601C766.7 601 733.3 601 700 601C666.7 601 633.3 601 600 601C566.7 601 533.3 601 500 601C466.7 601 433.3 601 400 601C366.7 601 333.3 601 300 601C266.7 601 233.3 601 200 601C166.7 601 133.3 601 100 601C66.7 601 33.3 601 16.7 601L0 601Z" fill="#121519" stroke-linecap="round" stroke-linejoin="miter"></path></svg>